/* XPM */
static char * spaceinvader_xpm[] = {
"20 20 2 1",
" 	c None",
".	c #afd75f",
"                    ",
"    ..        ..    ",
"    ..        ..    ",
"      ..    ..      ",
"      ..    ..      ",
"    ............    ",
"    ............    ",
"  ....  ....  ....  ",
"  ....  ....  ....  ",
"....................",
"....................",
".. .............. ..",
".. .............. ..",
".. ..          .. ..",
".. ..          .. ..",
"     ....  ....     ",
"     ....  ....     ",
"                    ",
"                    ",
"                    ",
"XPMEXT author PHØ   ",
"mailto:post@nerdbude.com",
"XPMENDEXT"};
